<mxfile host="app.diagrams.net" modified="2022-04-11T08:39:58.055Z" agent="5.0 (Windows)" etag="nhUPD80RX6YGGZ1KH6KR" version="17.4.2" type="github">
  <diagram id="MInBh1SqWbQjp1WLOZTz" name="Page-1">
    <mxGraphModel dx="1378" dy="683" grid="1" gridSize="10" guides="1" tooltips="1" connect="1" arrows="1" fold="1" page="1" pageScale="1" pageWidth="1169" pageHeight="827" math="0" shadow="0">
      <root>
        <mxCell id="0" />
        <mxCell id="1" parent="0" />
        <mxCell id="dHW5bmCrXBDn3EMq-nTH-1" value="&lt;div&gt;Façade:&lt;/div&gt;&lt;div&gt;Interface permettant de gérer backend&lt;br&gt;&lt;/div&gt;" style="rounded=0;whiteSpace=wrap;html=1;fontFamily=Helvetica;" parent="1" vertex="1">
          <mxGeometry x="630" y="280" width="130" height="100" as="geometry" />
        </mxCell>
        <mxCell id="lajUPEfwQLAzJnHiFyT6-1" value="" style="endArrow=classic;html=1;rounded=0;strokeColor=#000000;" edge="1" parent="1">
          <mxGeometry width="50" height="50" relative="1" as="geometry">
            <mxPoint x="760" y="280" as="sourcePoint" />
            <mxPoint x="810" y="230" as="targetPoint" />
          </mxGeometry>
        </mxCell>
        <mxCell id="lajUPEfwQLAzJnHiFyT6-2" value="Objets de la DB" style="rounded=0;whiteSpace=wrap;html=1;" vertex="1" parent="1">
          <mxGeometry x="810" y="170" width="120" height="60" as="geometry" />
        </mxCell>
      </root>
    </mxGraphModel>
  </diagram>
</mxfile>
